# xmcd
#
# Track frame offsets:
#	150
#	5004
#	18398
#	37244
#	56888
#	70364
#	74786
#	89677
#	104605
#	112229
#	129650
#	145765
#	163329
#	177227
#
# Disc length: 2658 seconds
#
# Revision: 1
# Processed by: cddbd v1.5.1PL0 Copyright (c) Steve Scherf et al.
# Submitted via: audiograbber 1.83.01
#
DISCID=e40a600e
DTITLE=Various Artist - K-Laz Presents: The Soulsnatcher BD
DYEAR=2005
DGENRE=Hip-Hop
TTITLE0=K-Laz - Intro (featuring Soul Supreme and DJ Shorty)
TTITLE1=Fred Nukes - Lovin'
TTITLE2=Inverse - The Reason
TTITLE3=Caspian One Nine-86 - Sweet Side Of Things
TTITLE4=Formula One - You Gotta
TTITLE5=K-Laz - BD Interlude
TTITLE6=FORTY4 - I Need Time
TTITLE7=Hummin - Understand It
TTITLE8=2 Much and Rafael - Spoken Interlude
TTITLE9=Jung and Simon Trabelsi - Enjoy The Ride
TTITLE10=Paul Mac Innes - Seasons
TTITLE11=Milkman and DJ Monch - It's All Good
TTITLE12=PS a.k.a The Marginal Error - Shyne
TTITLE13=PS a.k.a The Marginal Error and Ashar - Sometimes I Feel
EXTD=
EXTT0=
EXTT1=
EXTT2=
EXTT3=
EXTT4=
EXTT5=
EXTT6=
EXTT7=
EXTT8=
EXTT9=
EXTT10=
EXTT11=
EXTT12=
EXTT13=
PLAYORDER=
